<?xml version="1.0" encoding="UTF-8" standalone="no"?>
<svg
   xmlns:dc="http://purl.org/dc/elements/1.1/"
   xmlns:cc="http://creativecommons.org/ns#"
   xmlns:rdf="http://www.w3.org/1999/02/22-rdf-syntax-ns#"
   xmlns:svg="http://www.w3.org/2000/svg"
   xmlns="http://www.w3.org/2000/svg"
   xmlns:xlink="http://www.w3.org/1999/xlink"
   xmlns:sodipodi="http://sodipodi.sourceforge.net/DTD/sodipodi-0.dtd"
   xmlns:inkscape="http://www.inkscape.org/namespaces/inkscape"
   inkscape:version="1.0 (4035a4fb49, 2020-05-01)"
   sodipodi:docname="arrow_dark.svg"
   id="svg22"
   version="1.1"
   viewBox="0 0 24 26"
   height="26px"
   width="24px">
  <metadata
     id="metadata26">
    <rdf:RDF>
      <cc:Work
         rdf:about="">
        <dc:format>image/svg+xml</dc:format>
        <dc:type
           rdf:resource="http://purl.org/dc/dcmitype/StillImage" />
        <dc:title>arrow</dc:title>
      </cc:Work>
    </rdf:RDF>
  </metadata>
  <sodipodi:namedview
     inkscape:current-layer="svg22"
     inkscape:window-maximized="1"
     inkscape:window-y="-8"
     inkscape:window-x="-8"
     inkscape:cy="13"
     inkscape:cx="12"
     inkscape:zoom="32.692308"
     showgrid="false"
     id="namedview24"
     inkscape:window-height="1017"
     inkscape:window-width="1920"
     inkscape:pageshadow="2"
     inkscape:pageopacity="0"
     guidetolerance="10"
     gridtolerance="10"
     objecttolerance="10"
     borderopacity="1"
     bordercolor="#666666"
     pagecolor="#11ff00" />
  <!-- Generator: Sketch 54.1 (76490) - https://sketchapp.com -->
  <title
     id="title2">arrow</title>
  <desc
     id="desc4">Created with Sketch.</desc>
  <defs
     id="defs12">
    <path
       id="path-1"
       d="M80.3333333,88.6666667 L83,88.6666667 L83,91.3333333 L80.3333333,91.3333333 L80.3333333,94 L77.6666667,94 L77.6666667,91.3333333 C71.4444444,91.3333333 65.2222222,91.3333333 59,91.3333333 L59,88.6666667 C65.2222222,88.6666667 71.4444444,88.6666667 77.6666667,88.6666667 L77.6666667,86 L80.3333333,86 L80.3333333,88.6666667 Z M75,83.3333333 L77.6666667,83.3333333 L77.6666667,86 L75,86 L75,83.3333333 Z M72.3333333,80.6666667 L75,80.6666667 L75,83.3333333 L72.3333333,83.3333333 L72.3333333,80.6666667 Z M69.6666667,78 L72.3333333,78 L72.3333333,80.6666667 L69.6666667,80.6666667 L69.6666667,78 Z M75,96.6666667 L75,94 L77.6666667,94 L77.6666667,96.6666667 L75,96.6666667 Z M72.3333333,99.3333333 L72.3333333,96.6666667 L75,96.6666667 L75,99.3333333 L72.3333333,99.3333333 Z M69.6666667,102 L69.6666667,99.3333333 L72.3333333,99.3333333 L72.3333333,102 L69.6666667,102 Z" />
    <filter
       id="filter-2"
       filterUnits="objectBoundingBox"
       height="116.7%"
       width="108.3%"
       y="-4.2%"
       x="-4.2%">
      <feOffset
         id="feOffset7"
         result="shadowOffsetOuter1"
         in="SourceAlpha"
         dy="2"
         dx="0" />
      <feColorMatrix
         id="feColorMatrix9"
         in="shadowOffsetOuter1"
         type="matrix"
         values="0 0 0 0 0.96823281   0 0 0 0 0.78809464   0 0 0 0 0.952825725  0 0 0 1 0" />
    </filter>
  </defs>
  <g
     style="fill:#ffffff"
     fill-rule="evenodd"
     fill="none"
     stroke-width="1"
     stroke="none"
     id="Page-1">
    <g
       style="fill:#ffffff"
       fill-rule="nonzero"
       transform="translate(-60.000000, -77.000000)"
       id="gifOS_captura_7_exito">
      <g
         style="fill:#ffffff"
         transform="translate(1.000000, 1.000000)"
         id="nav-bar">
        <g
           style="fill:#ffffff"
           transform="translate(71.000000, 90.000000) rotate(-180.000000) translate(-71.000000, -90.000000) "
           id="arrow">
          <use
             style="fill:#ffffff"
             id="use14"
             xlink:href="#path-1"
             filter="url(#filter-2)"
             fill-opacity="1"
             fill="black" />
          <use
             style="fill:#ffffff"
             id="use16"
             xlink:href="#path-1"
             fill="#110038" />
        </g>
      </g>
    </g>
  </g>
</svg>
